<svg width="25" height="25" viewBox="0 0 25 25" fill="none" xmlns="http://www.w3.org/2000/svg">
<circle cx="12.7947" cy="12.7946" r="12" fill="#4F46E5"/>
<path d="M13.4897 7.31644C13.3988 7.12189 13.2078 7 12.9987 7C12.7895 7 12.5986 7.12189 12.5076 7.31644L10.9481 10.6286L7.46545 11.1607C7.26085 11.1911 7.09035 11.3388 7.0267 11.5427C6.96305 11.7467 7.01533 11.967 7.16083 12.117L9.68646 14.6978L9.09086 18.3428C9.05676 18.5537 9.14087 18.767 9.31137 18.8936C9.48187 19.0202 9.70465 19.0343 9.88651 18.9335L13.0009 17.2176L16.1154 18.9335C16.2995 19.0343 16.5223 19.0202 16.6905 18.8936C16.8587 18.767 16.9451 18.5537 16.911 18.3428L16.3109 14.6978L18.8388 12.1147C18.9865 11.9647 19.0366 11.742 18.9729 11.5404C18.9093 11.3388 18.7388 11.1911 18.5342 11.1583L15.0492 10.6286L13.4897 7.31644ZM13.0009 16.0175V8.85413L14.1944 11.388C14.274 11.5545 14.4263 11.6717 14.6059 11.6998L17.2952 12.11L15.3424 14.1024C15.2174 14.2313 15.1583 14.4142 15.1879 14.5947L15.6471 17.3981L13.2556 16.0831C13.176 16.0386 13.0873 16.0175 13.0009 16.0175Z" fill="white"/>
</svg>
